<svg xmlns="http://www.w3.org/2000/svg" xmlns:xlink="http://www.w3.org/1999/xlink" width="425" zoomAndPan="magnify" viewBox="0 0 318.75 127.500001" height="170" preserveAspectRatio="xMidYMid meet" version="1.0"><defs><g/><clipPath id="d22931b22b"><path d="M 0.496094 34.59375 L 9.683594 34.59375 L 9.683594 90.386719 L 0.496094 90.386719 Z M 0.496094 34.59375 " clip-rule="nonzero"/></clipPath><clipPath id="2dbc1b7e8a"><path d="M 0.496094 34.589844 L 56.53125 34.589844 L 56.53125 43.777344 L 0.496094 43.777344 Z M 0.496094 34.589844 " clip-rule="nonzero"/></clipPath><clipPath id="61d92b746d"><path d="M 13.03125 47.125 L 22.21875 47.125 L 22.21875 90.386719 L 13.03125 90.386719 Z M 13.03125 47.125 " clip-rule="nonzero"/></clipPath><clipPath id="c04e66dc83"><path d="M 13.023438 47.125 L 56.53125 47.125 L 56.53125 56.3125 L 13.023438 56.3125 Z M 13.023438 47.125 " clip-rule="nonzero"/></clipPath><clipPath id="9d0f3a2e6f"><path d="M 25.566406 59.660156 L 34.75 59.660156 L 34.75 90.386719 L 25.566406 90.386719 Z M 25.566406 59.660156 " clip-rule="nonzero"/></clipPath><clipPath id="a4e1507bff"><path d="M 25.558594 59.660156 L 56.53125 59.660156 L 56.53125 68.84375 L 25.558594 68.84375 Z M 25.558594 59.660156 " clip-rule="nonzero"/></clipPath><clipPath id="b0d7b782e3"><path d="M 38.097656 72.191406 L 47.285156 72.191406 L 47.285156 90.386719 L 38.097656 90.386719 Z M 38.097656 72.191406 " clip-rule="nonzero"/></clipPath><clipPath id="ef9f895e12"><path d="M 38.089844 72.191406 L 56.53125 72.191406 L 56.53125 81.378906 L 38.089844 81.378906 Z M 38.089844 72.191406 " clip-rule="nonzero"/></clipPath></defs><g fill="#ffffff" fill-opacity="1"><g transform="translate(69.362706, 87.561553)"><g><path d="M 5.234375 0 L 5.234375 -49.46875 L 19.5 -49.46875 L 19.5 -31.734375 L 21.90625 -31.734375 C 23.601562 -31.734375 24.957031 -31.882812 25.96875 -32.1875 C 26.976562 -32.5 27.800781 -33.039062 28.4375 -33.8125 C 29.082031 -34.59375 29.640625 -35.691406 30.109375 -37.109375 L 34.5625 -49.46875 L 50.03125 -49.46875 L 42.6875 -31.03125 C 41.550781 -28.195312 40.234375 -25.863281 38.734375 -24.03125 L 51.734375 0 L 35.1875 0 L 25.71875 -18.734375 L 19.5 -18.734375 L 19.5 0 Z M 5.234375 0 "/></g></g></g><g fill="#ffffff" fill-opacity="1"><g transform="translate(119.254071, 87.561553)"><g><path d="M 0.359375 0 L 19.578125 -49.46875 L 33.703125 -49.46875 L 52.9375 0 L 37.734375 0 L 35.046875 -7 L 18.15625 -7 L 15.484375 0 Z M 21.125 -17.453125 L 32.15625 -17.453125 L 26.640625 -32.796875 Z M 21.125 -17.453125 "/></g></g></g><g fill="#ffffff" fill-opacity="1"><g transform="translate(169.004106, 87.561553)"><g><path d="M 5.234375 0 L 5.234375 -49.46875 L 19.5 -49.46875 L 19.5 0 Z M 5.234375 0 "/></g></g></g><g fill="#ffffff" fill-opacity="1"><g transform="translate(190.204198, 87.561553)"><g><path d="M 5.234375 0 L 5.234375 -49.46875 L 27.78125 -49.46875 C 31.78125 -49.46875 35.226562 -48.75 38.125 -47.3125 C 41.019531 -45.875 43.253906 -43.835938 44.828125 -41.203125 C 46.410156 -38.566406 47.203125 -35.410156 47.203125 -31.734375 C 47.203125 -28.296875 46.492188 -25.289062 45.078125 -22.71875 C 43.671875 -20.15625 41.648438 -18.140625 39.015625 -16.671875 L 48.125 0 L 31.9375 0 L 24.875 -14.0625 L 19.5 -14.0625 L 19.5 0 Z M 19.21875 -25.4375 L 25.859375 -25.4375 C 28.128906 -25.4375 29.863281 -25.976562 31.0625 -27.0625 C 32.257812 -28.144531 32.859375 -29.675781 32.859375 -31.65625 C 32.859375 -33.632812 32.257812 -35.15625 31.0625 -36.21875 C 29.863281 -37.28125 28.128906 -37.8125 25.859375 -37.8125 L 19.21875 -37.8125 Z M 19.21875 -25.4375 "/></g></g></g><g fill="#ffffff" fill-opacity="1"><g transform="translate(237.55151, 87.561553)"><g><path d="M 29.328125 1.0625 C 25.367188 1.0625 21.75 0.4375 18.46875 -0.8125 C 15.195312 -2.0625 12.359375 -3.835938 9.953125 -6.140625 C 7.554688 -8.453125 5.695312 -11.1875 4.375 -14.34375 C 3.0625 -17.5 2.40625 -20.960938 2.40625 -24.734375 C 2.40625 -28.503906 3.0625 -31.96875 4.375 -35.125 C 5.695312 -38.28125 7.554688 -41.007812 9.953125 -43.3125 C 12.359375 -45.625 15.195312 -47.40625 18.46875 -48.65625 C 21.75 -49.90625 25.367188 -50.53125 29.328125 -50.53125 C 33.285156 -50.53125 36.898438 -49.90625 40.171875 -48.65625 C 43.453125 -47.40625 46.289062 -45.625 48.6875 -43.3125 C 51.09375 -41.007812 52.953125 -38.28125 54.265625 -35.125 C 55.585938 -31.96875 56.25 -28.503906 56.25 -24.734375 C 56.25 -20.960938 55.585938 -17.5 54.265625 -14.34375 C 52.953125 -11.1875 51.09375 -8.453125 48.6875 -6.140625 C 46.289062 -3.835938 43.453125 -2.0625 40.171875 -0.8125 C 36.898438 0.4375 33.285156 1.0625 29.328125 1.0625 Z M 16.890625 -24.734375 C 16.890625 -22.285156 17.421875 -20.101562 18.484375 -18.1875 C 19.546875 -16.28125 21.015625 -14.796875 22.890625 -13.734375 C 24.773438 -12.679688 26.921875 -12.15625 29.328125 -12.15625 C 31.773438 -12.15625 33.929688 -12.679688 35.796875 -13.734375 C 37.660156 -14.796875 39.117188 -16.28125 40.171875 -18.1875 C 41.234375 -20.101562 41.765625 -22.285156 41.765625 -24.734375 C 41.765625 -27.234375 41.234375 -29.425781 40.171875 -31.3125 C 39.117188 -33.195312 37.660156 -34.664062 35.796875 -35.71875 C 33.929688 -36.78125 31.773438 -37.3125 29.328125 -37.3125 C 26.921875 -37.3125 24.773438 -36.78125 22.890625 -35.71875 C 21.015625 -34.664062 19.546875 -33.195312 18.484375 -31.3125 C 17.421875 -29.425781 16.890625 -27.234375 16.890625 -24.734375 Z M 16.890625 -24.734375 "/></g></g></g><g clip-path="url(#d22931b22b)"><path fill="#ea580c" d="M 0.496094 34.59375 L 9.683594 34.59375 L 9.683594 90.394531 L 0.496094 90.394531 Z M 0.496094 34.59375 " fill-opacity="1" fill-rule="nonzero"/></g><g clip-path="url(#2dbc1b7e8a)"><path fill="#ea580c" d="M 56.53125 34.589844 L 56.53125 43.777344 L 0.480469 43.777344 L 0.480469 34.589844 Z M 56.53125 34.589844 " fill-opacity="1" fill-rule="nonzero"/></g><g clip-path="url(#61d92b746d)"><path fill="#ea580c" d="M 13.03125 47.125 L 22.21875 47.125 L 22.21875 90.402344 L 13.03125 90.402344 Z M 13.03125 47.125 " fill-opacity="1" fill-rule="nonzero"/></g><g clip-path="url(#c04e66dc83)"><path fill="#ea580c" d="M 56.53125 47.125 L 56.53125 56.3125 L 13.039062 56.3125 L 13.039062 47.125 Z M 56.53125 47.125 " fill-opacity="1" fill-rule="nonzero"/></g><g clip-path="url(#9d0f3a2e6f)"><path fill="#ea580c" d="M 25.566406 59.660156 L 34.75 59.660156 L 34.75 90.375 L 25.566406 90.375 Z M 25.566406 59.660156 " fill-opacity="1" fill-rule="nonzero"/></g><g clip-path="url(#a4e1507bff)"><path fill="#ea580c" d="M 56.53125 59.660156 L 56.53125 68.84375 L 25.566406 68.84375 L 25.566406 59.660156 Z M 56.53125 59.660156 " fill-opacity="1" fill-rule="nonzero"/></g><g clip-path="url(#b0d7b782e3)"><path fill="#ea580c" d="M 38.097656 72.191406 L 47.285156 72.191406 L 47.285156 90.386719 L 38.097656 90.386719 Z M 38.097656 72.191406 " fill-opacity="1" fill-rule="nonzero"/></g><g clip-path="url(#ef9f895e12)"><path fill="#ea580c" d="M 56.53125 72.191406 L 56.53125 81.378906 L 38.089844 81.378906 L 38.089844 72.191406 Z M 56.53125 72.191406 " fill-opacity="1" fill-rule="nonzero"/></g></svg>